Coordinates
nRows=17
nColumns=24

# SIMM Motion File Header:
name Coordinates
datacolumns 24
datarows 17
otherdata 1
range 0.67800000000000005000 0.69400000000000006000
endheader
time	pelvis_tx	pelvis_ty	pelvis_tz	pelvis_tilt	pelvis_list	pelvis_rotation	hip_flexion_r	hip_adduction_r	hip_rotation_r	knee_angle_r	ankle_angle_r	subtalar_angle_r	mtp_angle_r	hip_flexion_l	hip_adduction_l	hip_rotation_l	knee_angle_l	ankle_angle_l	subtalar_angle_l	mtp_angle_l	lumbar_extension	lumbar_bending	lumbar_rotation
      0.67800000000000005000	     -0.81925627205752305000	      0.93669429134686910000	     -0.24355922955732523000	     20.22423791613319500000	      2.67268847367794040000	     -3.61621810905991700000	      0.34473068642749610000	     -5.92658663998935250000	      1.21195361667670400000	    -61.43238761875368700000	      4.30781539361588010000	     -0.00000000000003701878	      0.00000000000015885985	    -17.97886515377007700000	      6.41260215738809340000	      4.67556550705994930000	    -10.84291455460720700000	      5.81245669574362190000	      0.00000000000010639508	     -0.00000000000015357761	    -30.12211432306362700000	     -4.46790715420806620000	      1.46685095713293380000
      0.67900000000000005000	     -0.81770563117479689000	      0.93657932555376189000	     -0.24376888341892661000	     20.24627927027424300000	      2.63426849163987780000	     -3.53144056946792740000	      0.42052635687232343000	     -5.86549736577937080000	      1.12371351300282130000	    -61.22030770446266200000	      4.38590641022235330000	     -0.00000000000003755533	      0.00000000000015998433	    -18.21177350284965300000	      6.34729108427087050000	      4.72436273997372690000	    -10.65836730838323000000	      5.79225128564524460000	      0.00000000000010706195	     -0.00000000000015465726	    -30.15112209933172600000	     -4.38623956414989810000	      1.39766296870156510000
      0.68000000000000005000	     -0.81615499029207084000	      0.93646435976065467000	     -0.24397853728052796000	     20.26832062441528800000	      2.59584850960181510000	     -3.44666302987593780000	      0.49632202731715075000	     -5.80440809156938900000	      1.03547340932893860000	    -61.00822779017163100000	      4.46399742682882650000	     -0.00000000000003809188	      0.00000000000016110882	    -18.44468185192923200000	      6.28198001115364680000	      4.77315997288750360000	    -10.47382006215925500000	      5.77204587554686640000	      0.00000000000010772881	     -0.00000000000015573691	    -30.18012987559982100000	     -4.30457197409173010000	      1.32847498027019650000
      0.68100000000000005000	     -0.81460492691741027000	      0.93634203662817628000	     -0.24418831581288103000	     20.29006050350080100000	      2.55786463870572640000	     -3.36126579947312410000	      0.57002867819165404000	     -5.74415301112667100000	      0.94614289071403601000	    -60.79015414244756200000	      4.53702977112047810000	     -0.00000000000003863528	      0.00000000000016221363	    -18.67731718405661200000	      6.21576278137743370000	      4.82058157683748780000	    -10.28806224322278200000	      5.74885912326918900000	      0.00000000000010842515	     -0.00000000000015684718	    -30.20867275636141600000	     -4.22303110264368090000	      1.25907974407999230000
      0.68200000000000005000	     -0.81305505604543837000	      0.93621726104924075000	     -0.24439813590215137000	     20.31169989090113100000	      2.52002613819029530000	     -3.27566200546670270000	      0.64303898920938440000	     -5.68417599527304060000	      0.85644890045212752000	    -60.57008258357915100000	      4.60837589130719390000	     -0.00000000000003918095	      0.00000000000016331189	    -18.90986151053325800000	      6.14924349938155860000	      4.86754463779954170000	    -10.10190090004881500000	      5.72467859026508120000	      0.00000000000010913131	     -0.00000000000015796765	    -30.23706067195417500000	     -4.14153247073233910000	      1.18961542530351010000
      0.68300000000000005000	     -0.81150533258768176000	      0.93609035803240237000	     -0.24460808171960463000	     20.33324563197803400000	      2.48230503608049350000	     -3.18984141263949850000	      0.71544630406375753000	     -5.62441904718694550000	      0.76643764251266300000	    -60.34831923968867100000	      4.67840017746712360000	     -0.00000000000003972507	      0.00000000000016440182	    -19.14232100620506200000	      6.08245929323754990000	      4.91427377053974630000	     -9.91540109229370080000	      5.69970576314684150000	      0.00000000000010983917	     -0.00000000000015908442	    -30.26530957204580800000	     -4.06003901874384180000	      1.12005776970810380000
      0.68400000000000005000	     -0.80995605137257121000	      0.93595707270185580000	     -0.24481840472160668000	     20.35451043408465200000	      2.44493612918757730000	     -3.10337042334994930000	      0.78604463042806616000	     -5.56532230240345790000	      0.67547458154053464000	    -60.12148054073201600000	      4.74445896154671140000	     -0.00000000000004026450	      0.00000000000016546677	    -19.37452600946233300000	      6.01488031464914740000	      4.96030111861440480000	     -9.72788589079515910000	      5.67235605368621520000	      0.00000000000011055215	     -0.00000000000016019005	    -30.29314142563405500000	     -3.97856110652387910000	      1.05022010365592670000
      0.68500000000000005000	     -0.80840703918452828000	      0.93581938947313859000	     -0.24502977878842536000	     20.37551264634053200000	      2.40770608151163530000	     -3.01595805323713950000	      0.85538091568289931000	     -5.50656009537796540000	      0.58342013484676492000	    -59.89120577747121400000	      4.80787133249128650000	     -0.00000000000004079134	      0.00000000000016649405	    -19.60643194195399300000	      5.94655239354564640000	      5.00703573630295830000	     -9.53984084314000040000	      5.64456049266451830000	      0.00000000000011130150	     -0.00000000000016135484	    -30.32064418230105900000	     -3.89673962655956000000	      0.97979549536592603000
      0.68600000000000005000	     -0.80685829602355275000	      0.93567730834625096000	     -0.24524220392006063000	     20.39625226874567300000	      2.37061489305266670000	     -2.92760430230106920000	      0.92345515982825688000	     -5.44813242611046890000	      0.49027430243135367000	    -59.65749494990628000000	      4.86863729030084880000	     -0.00000000000004130560	      0.00000000000016748368	    -19.83803880368004300000	      5.87747552992704580000	      5.05447762360540680000	     -9.35126594932822640000	      5.61631908008175080000	      0.00000000000011208723	     -0.00000000000016257878	    -30.34781784204682300000	     -3.81457457885088360000	      0.90878394483810143000
      0.68700000000000006000	     -0.80530955286257722000	      0.93553522721936333000	     -0.24545462905169593000	     20.41699189115081100000	      2.33352370459369850000	     -2.83925055136499840000	      0.99152940397361411000	     -5.38970475684297320000	      0.39712847001594187000	    -59.42378412234133100000	      4.92940324811040930000	     -0.00000000000004181985	      0.00000000000016847331	    -20.06964566540609200000	      5.80839866630844440000	      5.10191951090785520000	     -9.16269105551645070000	      5.58807766749898520000	      0.00000000000011287296	     -0.00000000000016380272	    -30.37499150179258600000	     -3.73240953114220670000	      0.83777239431027661000
      0.68800000000000006000	     -0.80376181916611700000	      0.93538024241603490000	     -0.24566990703736552000	     20.43577801123217700000	      2.29673967182392150000	     -2.74856623918370470000	      1.05857790928099420000	     -5.33202643802125830000	      0.30144953417676384000	    -59.18285929346873100000	      4.98313604512708960000	     -0.00000000000004237292	      0.00000000000016960960	    -20.29858482727724900000	      5.73747244297945520000	      5.15078115486341130000	     -8.97401311892459040000	      5.56288041837134720000	      0.00000000000011371318	     -0.00000000000016510902	    -30.39999123878487100000	     -3.64930288870254940000	      0.76534564627413049000
      0.68900000000000006000	     -0.80221408546965667000	      0.93522525761270647000	     -0.24588518502303508000	     20.45456413131354600000	      2.25995563905414440000	     -2.65788192700241100000	      1.12562641458837430000	     -5.27434811919954430000	      0.20577059833758582000	    -58.94193446459612300000	      5.03686884214377000000	     -0.00000000000004292600	      0.00000000000017074588	    -20.52752398914841000000	      5.66654621965046520000	      5.19964279881896730000	     -8.78533518233273010000	      5.53768316924370920000	      0.00000000000011455339	     -0.00000000000016641532	    -30.42499097577716000000	     -3.56619624626289160000	      0.69291889823798436000
      0.69000000000000006000	     -0.80066703667348549000	      0.93506274329429739000	     -0.24610160691025143000	     20.47184920104500700000	      2.22342793312422330000	     -2.56631405372959210000	      1.19310270879240870000	     -5.21717347626028260000	      0.10916757964557459000	    -58.69801094890677700000	      5.08671993186968850000	     -0.00000000000004348275	      0.00000000000017190937	    -20.75442754307633900000	      5.59486847774349180000	      5.24863816597575190000	     -8.59684514668761500000	      5.51451220549057820000	      0.00000000000011540753	     -0.00000000000016771789	    -30.44833560150119200000	     -3.48283796444712300000	      0.61998772511746481000
      0.69100000000000006000	     -0.79912067277760346000	      0.93489269946080766000	     -0.24631917269901449000	     20.48763322042657000000	      2.18715655403415750000	     -2.47386261936524980000	      1.26100679189309650000	     -5.16050250920347240000	      0.01164047810073204200	    -58.45108874640070000000	      5.13268931430485150000	     -0.00000000000004404318	      0.00000000000017310007	    -20.97929548906104800000	      5.52243921725853410000	      5.29776725633376520000	     -8.40854301198924500000	      5.49336752711195060000	      0.00000000000011627557	     -0.00000000000016901674	    -30.47002511595697200000	     -3.39922804325524330000	      0.54655212691257293000
      0.69200000000000006000	     -0.79757430888172143000	      0.93472265562731793000	     -0.24653673848777757000	     20.50341723980813000000	      2.15088517494409180000	     -2.38141118500090650000	      1.32891087499378550000	     -5.10383154214666310000	     -0.08588662344411135400	    -58.20416654389462300000	      5.17865869674000920000	     -0.00000000000004460362	      0.00000000000017429076	    -21.20416343504575000000	      5.45000995677357650000	      5.34689634669177850000	     -8.22024087729087500000	      5.47222284873332400000	      0.00000000000011714362	     -0.00000000000017031559	    -30.49171463041274800000	     -3.31561812206336360000	      0.47311652870768062000
      0.69300000000000006000	     -0.79602927670224444000	      0.93453912901393843000	     -0.24675573444986612000	     20.51636568996574900000	      2.11514625965749350000	     -2.28788016433799290000	      1.39825961948405750000	     -5.04816260629987390000	     -0.18448560419730295000	    -57.95284008255801200000	      5.21721267404317950000	     -0.00000000000004515802	      0.00000000000017547888	    -21.42524901282015300000	      5.37650553220989470000	      5.39539525848933630000	     -8.03219199920423320000	      5.45295999103430070000	      0.00000000000011797161	     -0.00000000000017147177	    -30.51027438293044400000	     -3.23188034357608480000	      0.39911981260547774000
      0.69400000000000006000	     -0.79448454779596600000	      0.93435243708765292000	     -0.24697489211486759000	     20.52873963045736600000	      2.07964361854833600000	     -2.19422852147739310000	      1.46782914253626420000	     -4.99288194879205970000	     -0.28322046232278653000	    -57.70040610303433900000	      5.25397740107443050000	     -0.00000000000004571301	      0.00000000000017669983	    -21.64559481831121000000	      5.30288052708457510000	      5.44352663014092020000	     -7.84405312438525200000	      5.43318079851577900000	      0.00000000000011879978	     -0.00000000000017259183	    -30.52818449732630400000	     -3.14829117184895010000	      0.32504365199082630000
